<?xml version="1.0" encoding="utf-8"?>
<!DOCTYPE svg PUBLIC "-//W3C//DTD SVG 1.1//EN" "http://www.w3.org/Graphics/SVG/1.1/DTD/svg11.dtd">
<svg version="1.1" xmlns="http://www.w3.org/2000/svg" xmlns:xlink="http://www.w3.org/1999/xlink" x="0px" y="0px" width="100%"
height="316px" viewBox="0 0 512 316" enable-background="new 0 0 512 316" xml:space="preserve">

<rect fill="#2F90C4" width="100%" height="100%"/>

<path fill="#FFFFFF" d="M400.1123047,44.1269531c-9.7382812,0-17.2783203,7.8535156-17.2783203,16.9633789v33.9228516
c-11.625-8.1679688-26.7050781-13.1918945-42.0908203-13.1918945c-15.5820312,0-29.9990234,4.8696289-42.0332031,13.1269531
c-11.6113281-8.1313477-26.6376953-13.1269531-41.984375-13.1269531c-15.5888672,0-30.0053711,4.8696289-42.0327148,13.1269531
c-11.6137695-8.1313477-26.6450195-13.1269531-41.984375-13.1269531c-42.2163086,0-76.0078125,35.4975586-76.3012695,78.2792969
l-0.0283203-0.5322266v62.2285156c0,9.2275391,8.7851562,17.078125,17.2724609,17.078125
c8.1767578,0,14.9199219-5.9199219,16.5634766-13.4394531c0.2543945-1.1425781,0.3979492-2.3232422,0.3979492-3.5224609
v-54.9697266c0-0.2685547,0-5.0185547,0-6.2783203c0-12.5673828,4.7128906-23.8759766,12.5649414-31.7275391
c7.859375-8.1689453,18.2167969-12.8793945,29.5307617-12.8793945c6.7211914,0,12.8935547,1.6171875,18.4370117,4.5273438
c-6.703125,11.6513672-10.6210938,25.1499023-10.7202148,39.5151367l-0.0336914-0.5322266v62.2285156
c0,9.2275391,8.796875,17.078125,17.2768555,17.078125c8.1762695,0,14.9213867-5.9199219,16.5644531-13.4394531
c0.2485352-1.1425781,0.3999023-2.3232422,0.3999023-3.5224609v-54.9697266c0-0.2685547,0-5.0185547,0-6.2783203
c0-0.5966797,0.0600586-1.1796875,0.0805664-1.7705078c0.0239258,0.5908203,0.0839844,1.1738281,0.0839844,1.7705078v-3.5375977
c0.7958984-11.1367188,5.2944336-21.0825195,12.3979492-28.1899414
c7.8549805-8.1689453,18.2216797-12.8793945,29.5302734-12.8793945c6.7158203,0,12.8974609,1.6171875,18.4453125,4.5273438
c-6.7949219,11.8071289-10.7558594,25.5063477-10.7558594,40.0795898c0,42.3974609,33.9238281,78.2099609,76.328125,78.2099609
v-0.0830078c9.4316406,0,17.0742188-7.6455078,17.0742188-17.0722656c0-9.4326172-7.6425781-17.0810547-17.0742188-17.0849609
c-11.3115234,0-21.6679688-4.7060547-29.5292969-12.8789062c-7.8515625-7.8486328-12.5644531-19.1572266-12.5644531-31.0908203
c0-0.5966797,0.0605469-1.1796875,0.0888672-1.7705078c0.015625,0.5908203,0.0761719,1.1738281,0.0761719,1.7705078v-3.5375977
c0.7988281-11.1367188,5.2958984-21.0825195,12.3994141-28.1899414
c7.8613281-8.1689453,18.2177734-12.8793945,29.5292969-12.8793945c11.6240234,0,21.6708984,4.7104492,29.5263672,12.8793945
c7.8574219,7.8515625,12.5644531,19.1601562,12.5644531,31.7275391c0,0.7949219,0.0449219,4.3925781,0,5.1835938v55.9482422
c0,9.2275391,8.7910156,17.078125,17.2783203,17.078125c9.421875,0,16.9599609-7.8505859,16.9599609-16.9619141v-61.2480469
c0-0.3203125,0-0.3203125,0-0.3203125V61.090332C417.0722656,51.9804688,409.5341797,44.1269531,400.1123047,44.1269531z"/>
</svg>
