<?xml version="1.0" encoding="utf-8"?>
<!-- Generator: Adobe Illustrator 16.0.0, SVG Export Plug-In . SVG Version: 6.00 Build 0)  -->
<!DOCTYPE svg PUBLIC "-//W3C//DTD SVG 1.1//EN" "http://www.w3.org/Graphics/SVG/1.1/DTD/svg11.dtd">
<svg version="1.1" id="Layer_1" xmlns="http://www.w3.org/2000/svg" xmlns:xlink="http://www.w3.org/1999/xlink" x="0px" y="0px"
	 width="280.5683594px" height="211.9482422px" viewBox="0 0 280.5683594 211.9482422"
	 enable-background="new 0 0 280.5683594 211.9482422" xml:space="preserve">
<rect fill="#4693B9" width="280.5683594" height="211.9482422"/>
<path fill="#F1F2F2" d="M216.0800781,45.5185547c-5.359375,0-9.5087891,4.3222656-9.5087891,9.3359375v18.6699219
	c-6.3974609-4.4951172-14.6972656-7.2597656-23.1650391-7.2597656c-8.5761719,0-16.5107422,2.6796875-23.1337891,7.2236328
	c-6.390625-4.4746094-14.6601562-7.2236328-23.1064453-7.2236328c-8.5800781,0-16.5146484,2.6796875-23.1337891,7.2236328
	c-6.3916016-4.4746094-14.6640625-7.2236328-23.1064453-7.2236328c-23.234375,0-41.8320312,19.5361328-41.9931641,43.0820312
	l-0.015625-0.2929688v34.2480469c0,5.078125,4.8349609,9.3984375,9.5058594,9.3984375
	c4.5,0,8.2119141-3.2578125,9.1162109-7.3955078c0.1396484-0.6298828,0.21875-1.2783203,0.21875-1.9394531v-30.2529297
	c0-0.1484375,0-2.7617188,0-3.4550781c0-6.9169922,2.59375-13.140625,6.9150391-17.4619141
	c4.3261719-4.4960938,10.0263672-7.0888672,16.2529297-7.0888672c3.6992188,0,7.0966797,0.890625,10.1474609,2.4921875
	c-3.6894531,6.4121094-5.8457031,13.8417969-5.9003906,21.7480469l-0.0185547-0.2929688v34.2480469
	c0,5.078125,4.8417969,9.3984375,9.5087891,9.3984375c4.5,0,8.2119141-3.2578125,9.1162109-7.3955078
	c0.1367188-0.6298828,0.2197266-1.2783203,0.2197266-1.9394531v-30.2529297c0-0.1484375,0-2.7617188,0-3.4550781
	c0-0.3291016,0.0332031-0.6494141,0.0449219-0.9746094c0.0126953,0.3251953,0.0458984,0.6455078,0.0458984,0.9746094v-1.9472656
	c0.4384766-6.1289062,2.9140625-11.6035156,6.8232422-15.5146484c4.3232422-4.4960938,10.0292969-7.0888672,16.2529297-7.0888672
	c3.6962891,0,7.0976562,0.890625,10.1513672,2.4921875c-3.7392578,6.4980469-5.9189453,14.0371094-5.9189453,22.0585938
	c0,23.3339844,18.6699219,43.0429688,42.0078125,43.0429688v-0.0449219c5.1914062,0,9.3964844-4.2080078,9.3964844-9.3964844
	c0-5.1914062-4.2050781-9.3994141-9.3964844-9.4023438c-6.2255859,0-11.9257812-2.5908203-16.2519531-7.0878906
	c-4.3212891-4.3203125-6.9150391-10.5439453-6.9150391-17.1113281c0-0.3291016,0.0332031-0.6494141,0.0488281-0.9746094
	c0.0087891,0.3251953,0.0419922,0.6455078,0.0419922,0.9746094v-1.9472656
	c0.4394531-6.1289062,2.9140625-11.6035156,6.8242188-15.5146484c4.3261719-4.4960938,10.0263672-7.0888672,16.2519531-7.0888672
	c6.3974609,0,11.9267578,2.5927734,16.25,7.0888672c4.3242188,4.3212891,6.9150391,10.5449219,6.9150391,17.4619141
	c0,0.4375,0.0244141,2.4169922,0,2.8525391v30.7919922c0,5.078125,4.8378906,9.3984375,9.5087891,9.3984375
	c5.1855469,0,9.3349609-4.3203125,9.3349609-9.3349609v-33.7080078c0-0.1767578,0-0.1767578,0-0.1767578V54.8544922
	C225.4150391,49.8408203,221.265625,45.5185547,216.0800781,45.5185547z"/>
</svg>
